<svg width="63" height="58" viewBox="0 0 63 58" fill="none" xmlns="http://www.w3.org/2000/svg">
<rect x="0.199997" y="36.9657" width="11.4545" height="20.3072" rx="2" fill="#333333"/>
<rect x="14.2" y="29.3505" width="11.4545" height="27.9224" rx="2" fill="#333333"/>
<rect x="28.2" y="24.2734" width="11.4545" height="32.9992" rx="2" fill="#333333"/>
<rect x="42.2" y="19.1965" width="11.4545" height="38.076" rx="2" fill="#333333"/>
<ellipse cx="53.6545" cy="8.32914" rx="8.90909" ry="8.32914" fill="#333333"/>
<path d="M56.9954 9.71143C56.9954 10.3069 56.7801 10.8279 56.3495 11.2745C55.9259 11.714 55.3188 12.0046 54.5282 12.1464V13.3266H53.0351V12.1995C52.5056 12.1712 51.9973 12.0897 51.5102 11.955C51.0302 11.8203 50.6313 11.6537 50.3136 11.4552L51.1184 9.62637C51.4714 9.83194 51.8667 9.99852 52.3044 10.1261C52.7421 10.2466 53.1621 10.3069 53.5645 10.3069C53.9104 10.3069 54.1575 10.275 54.3058 10.2112C54.454 10.1403 54.5282 10.0375 54.5282 9.90282C54.5282 9.74687 54.4293 9.62991 54.2317 9.55193C54.041 9.47396 53.7234 9.3889 53.2786 9.29674C52.7068 9.17624 52.2303 9.04864 51.8491 8.91396C51.4679 8.77219 51.1361 8.54535 50.8537 8.23345C50.5713 7.91446 50.4301 7.4856 50.4301 6.94686C50.4301 6.32307 50.6525 5.78787 51.0972 5.34129C51.549 4.89471 52.195 4.61116 53.0351 4.49066V3.33167H54.5282V4.46939C55.3753 4.54736 56.0918 4.75294 56.6778 5.0861L55.9259 6.90433C55.1988 6.53572 54.5105 6.35142 53.861 6.35142C53.2186 6.35142 52.8974 6.50737 52.8974 6.81927C52.8974 6.96813 52.9927 7.08155 53.1833 7.15952C53.3739 7.23041 53.6881 7.30838 54.1258 7.39345C54.6905 7.49978 55.167 7.62383 55.5553 7.7656C55.9436 7.90028 56.2789 8.12358 56.5613 8.43548C56.8507 8.74738 56.9954 9.17269 56.9954 9.71143Z" fill="white"/>
</svg>
