<svg width="22" height="23" viewBox="0 0 22 23" fill="none" xmlns="http://www.w3.org/2000/svg">
<path d="M7.18087 15.4453V17.2923H14.1304V19.0766H7.18087V22.7392H4.01913V19.0766H0.826087V17.2923H4.01913V0.826172H12.6278C15.487 0.826172 17.72 1.46269 19.327 2.73574C20.9339 3.98791 21.7374 5.78269 21.7374 8.12009C21.7374 10.4783 20.9339 12.294 19.327 13.567C17.72 14.8192 15.487 15.4453 12.6278 15.4453H7.18087ZM18.5757 8.15139C18.5757 6.66965 18.0643 5.53226 17.0417 4.73922C16.0191 3.94617 14.5478 3.54965 12.6278 3.54965H7.18087V12.847H12.6278C14.527 12.847 15.9878 12.4401 17.0104 11.6262C18.0539 10.7914 18.5757 9.63313 18.5757 8.15139Z" fill="#FF5900"/>
</svg>
